<mxfile host="app.diagrams.net" modified="2024-03-06T13:18:17.195Z" agent="Mozilla/5.0 (Windows NT 10.0; Win64; x64; rv:122.0) Gecko/20100101 Firefox/122.0" etag="hRPdAZU0pbUptaiSxrjs" version="24.0.2" type="github">
  <diagram name="Page-1" id="_PJ9OEYAvn3uqU7G6KaE">
    <mxGraphModel dx="794" dy="726" grid="1" gridSize="10" guides="1" tooltips="1" connect="1" arrows="1" fold="1" page="1" pageScale="1" pageWidth="850" pageHeight="1100" math="0" shadow="0">
      <root>
        <mxCell id="0" />
        <mxCell id="1" parent="0" />
        <mxCell id="NWV050QIIiLh7alUIDCg-1" value="Inicio" style="ellipse;whiteSpace=wrap;html=1;" parent="1" vertex="1">
          <mxGeometry x="365" y="80" width="120" height="80" as="geometry" />
        </mxCell>
        <mxCell id="NWV050QIIiLh7alUIDCg-5" value="" style="edgeStyle=orthogonalEdgeStyle;rounded=0;orthogonalLoop=1;jettySize=auto;html=1;entryX=0.5;entryY=0;entryDx=0;entryDy=0;" parent="1" source="NWV050QIIiLh7alUIDCg-2" target="NWV050QIIiLh7alUIDCg-6" edge="1">
          <mxGeometry relative="1" as="geometry">
            <mxPoint x="425" y="350" as="targetPoint" />
          </mxGeometry>
        </mxCell>
        <mxCell id="NWV050QIIiLh7alUIDCg-2" value="Ler num1, num2, num3" style="shape=card;whiteSpace=wrap;html=1;" parent="1" vertex="1">
          <mxGeometry x="360" y="310" width="130" height="60" as="geometry" />
        </mxCell>
        <mxCell id="NWV050QIIiLh7alUIDCg-11" value="" style="edgeStyle=orthogonalEdgeStyle;rounded=0;orthogonalLoop=1;jettySize=auto;html=1;" parent="1" source="NWV050QIIiLh7alUIDCg-6" target="NWV050QIIiLh7alUIDCg-10" edge="1">
          <mxGeometry relative="1" as="geometry" />
        </mxCell>
        <mxCell id="NWV050QIIiLh7alUIDCg-6" value="&lt;div&gt;Media =&lt;/div&gt;&lt;div&gt;(num1+num2+num3)/3&lt;/div&gt;" style="rounded=1;whiteSpace=wrap;html=1;" parent="1" vertex="1">
          <mxGeometry x="350" y="420" width="150" height="60" as="geometry" />
        </mxCell>
        <mxCell id="NWV050QIIiLh7alUIDCg-8" value="" style="edgeStyle=orthogonalEdgeStyle;rounded=0;orthogonalLoop=1;jettySize=auto;html=1;" parent="1" source="NWV050QIIiLh7alUIDCg-1" target="NWV050QIIiLh7alUIDCg-7" edge="1">
          <mxGeometry relative="1" as="geometry">
            <mxPoint x="425" y="160" as="sourcePoint" />
            <mxPoint x="425" y="290" as="targetPoint" />
          </mxGeometry>
        </mxCell>
        <mxCell id="NWV050QIIiLh7alUIDCg-9" value="" style="edgeStyle=orthogonalEdgeStyle;rounded=0;orthogonalLoop=1;jettySize=auto;html=1;" parent="1" source="NWV050QIIiLh7alUIDCg-7" target="NWV050QIIiLh7alUIDCg-2" edge="1">
          <mxGeometry relative="1" as="geometry" />
        </mxCell>
        <mxCell id="NWV050QIIiLh7alUIDCg-7" value="Media = 0" style="shape=parallelogram;perimeter=parallelogramPerimeter;whiteSpace=wrap;html=1;fixedSize=1;" parent="1" vertex="1">
          <mxGeometry x="365" y="200" width="120" height="60" as="geometry" />
        </mxCell>
        <mxCell id="NWV050QIIiLh7alUIDCg-13" value="" style="edgeStyle=orthogonalEdgeStyle;rounded=0;orthogonalLoop=1;jettySize=auto;html=1;" parent="1" source="NWV050QIIiLh7alUIDCg-10" target="NWV050QIIiLh7alUIDCg-12" edge="1">
          <mxGeometry relative="1" as="geometry" />
        </mxCell>
        <mxCell id="NWV050QIIiLh7alUIDCg-15" value="" style="edgeStyle=orthogonalEdgeStyle;rounded=0;orthogonalLoop=1;jettySize=auto;html=1;" parent="1" source="NWV050QIIiLh7alUIDCg-10" target="NWV050QIIiLh7alUIDCg-14" edge="1">
          <mxGeometry relative="1" as="geometry" />
        </mxCell>
        <mxCell id="NWV050QIIiLh7alUIDCg-10" value="Media &amp;gt; 100" style="rhombus;whiteSpace=wrap;html=1;" parent="1" vertex="1">
          <mxGeometry x="373" y="530" width="105" height="100" as="geometry" />
        </mxCell>
        <mxCell id="NWV050QIIiLh7alUIDCg-18" value="" style="edgeStyle=orthogonalEdgeStyle;rounded=0;orthogonalLoop=1;jettySize=auto;html=1;" parent="1" source="NWV050QIIiLh7alUIDCg-12" target="NWV050QIIiLh7alUIDCg-16" edge="1">
          <mxGeometry relative="1" as="geometry" />
        </mxCell>
        <mxCell id="NWV050QIIiLh7alUIDCg-12" value="Imprimir: Media maior que 100" style="shape=display;whiteSpace=wrap;html=1;" parent="1" vertex="1">
          <mxGeometry x="360" y="680" width="130" height="60" as="geometry" />
        </mxCell>
        <mxCell id="NWV050QIIiLh7alUIDCg-17" value="" style="edgeStyle=orthogonalEdgeStyle;rounded=0;orthogonalLoop=1;jettySize=auto;html=1;" parent="1" source="NWV050QIIiLh7alUIDCg-14" target="NWV050QIIiLh7alUIDCg-16" edge="1">
          <mxGeometry relative="1" as="geometry" />
        </mxCell>
        <mxCell id="NWV050QIIiLh7alUIDCg-14" value="Media menor ou igual a 100" style="shape=display;whiteSpace=wrap;html=1;" parent="1" vertex="1">
          <mxGeometry x="540" y="550" width="130" height="60" as="geometry" />
        </mxCell>
        <mxCell id="NWV050QIIiLh7alUIDCg-16" value="Fim" style="ellipse;whiteSpace=wrap;html=1;" parent="1" vertex="1">
          <mxGeometry x="545" y="670" width="120" height="80" as="geometry" />
        </mxCell>
        <mxCell id="Xwd6VXWzeOOA6jfk-ecg-1" value="Sim" style="text;html=1;align=center;verticalAlign=middle;resizable=0;points=[];autosize=1;strokeColor=none;fillColor=none;" parent="1" vertex="1">
          <mxGeometry x="420" y="638" width="40" height="30" as="geometry" />
        </mxCell>
        <mxCell id="Xwd6VXWzeOOA6jfk-ecg-2" value="NÃ£o" style="text;html=1;align=center;verticalAlign=middle;resizable=0;points=[];autosize=1;strokeColor=none;fillColor=none;" parent="1" vertex="1">
          <mxGeometry x="480" y="550" width="50" height="30" as="geometry" />
        </mxCell>
      </root>
    </mxGraphModel>
  </diagram>
</mxfile>
